<svg width="31" height="31" viewBox="0 0 31 31" fill="none" xmlns="http://www.w3.org/2000/svg">
<path d="M15.4998 11.6248C16.2103 11.6248 16.7915 11.0436 16.7915 10.3332V7.74984H19.3748C20.0853 7.74984 20.6665 7.16859 20.6665 6.45817C20.6665 5.74775 20.0853 5.1665 19.3748 5.1665H16.7915V2.58317C16.7915 1.87275 16.2103 1.2915 15.4998 1.2915C14.7894 1.2915 14.2082 1.87275 14.2082 2.58317V5.1665H11.6248C10.9144 5.1665 10.3332 5.74775 10.3332 6.45817C10.3332 7.16859 10.9144 7.74984 11.6248 7.74984H14.2082V10.3332C14.2082 11.0436 14.7894 11.6248 15.4998 11.6248ZM9.0415 23.2498C7.62067 23.2498 6.47109 24.4123 6.47109 25.8332C6.47109 27.254 7.62067 28.4165 9.0415 28.4165C10.4623 28.4165 11.6248 27.254 11.6248 25.8332C11.6248 24.4123 10.4623 23.2498 9.0415 23.2498ZM21.9582 23.2498C20.5373 23.2498 19.3878 24.4123 19.3878 25.8332C19.3878 27.254 20.5373 28.4165 21.9582 28.4165C23.379 28.4165 24.5415 27.254 24.5415 25.8332C24.5415 24.4123 23.379 23.2498 21.9582 23.2498ZM10.4623 16.7915H20.0853C21.054 16.7915 21.9065 16.2619 22.3457 15.4611L26.5307 7.53025C26.6885 7.23159 26.7228 6.8829 26.6262 6.55921C26.5296 6.23552 26.3097 5.96269 26.014 5.79942C25.8642 5.71738 25.6996 5.66599 25.5297 5.64823C25.3599 5.63048 25.1882 5.64673 25.0247 5.69602C24.8612 5.74532 24.7091 5.82667 24.5774 5.93535C24.4456 6.04403 24.3368 6.17785 24.2573 6.329L20.0853 14.2082H11.0178L5.51525 2.58317H2.58317C1.87275 2.58317 1.2915 3.16442 1.2915 3.87484C1.2915 4.58525 1.87275 5.1665 2.58317 5.1665H3.87484L8.52484 14.9703L6.78109 18.1219C5.83817 19.8528 7.07817 21.9582 9.0415 21.9582H23.2498C23.9603 21.9582 24.5415 21.3769 24.5415 20.6665C24.5415 19.9561 23.9603 19.3748 23.2498 19.3748H9.0415L10.4623 16.7915Z" fill="#705D4A"/>
</svg>
